<svg width="250" height="250" viewBox="0 0 250 250" fill="none" xmlns="http://www.w3.org/2000/svg">
<rect width="250" height="250" fill="#131517"/>
<g clip-path="url(#clip0_151_969)">
<path d="M125 68.75C125.825 68.75 126.644 68.75 127.456 68.75C119.427 76.2106 114.266 86.249 112.871 97.1201C111.475 107.991 113.933 119.008 119.817 128.255C125.701 137.501 134.64 144.394 145.079 147.734C155.518 151.074 166.797 150.651 176.956 146.537C173.048 155.941 166.661 164.106 158.476 170.164C150.291 176.222 140.615 179.944 130.481 180.934C120.346 181.923 110.133 180.143 100.931 175.784C91.7283 171.424 83.8821 164.648 78.2288 156.179C72.5755 147.709 69.3273 137.864 68.8306 127.694C68.334 117.523 70.6075 107.408 75.4087 98.4282C80.2099 89.4483 87.3586 81.9401 96.0924 76.7045C104.826 71.469 114.817 68.7024 125 68.7V68.75Z" stroke="#296EFF" stroke-width="10" stroke-linecap="round" stroke-linejoin="round"/>
<path d="M156.25 75C156.25 78.3152 157.567 81.4946 159.911 83.8388C162.255 86.183 165.435 87.5 168.75 87.5C165.435 87.5 162.255 88.817 159.911 91.1612C157.567 93.5054 156.25 96.6848 156.25 100C156.25 96.6848 154.933 93.5054 152.589 91.1612C150.245 88.817 147.065 87.5 143.75 87.5C147.065 87.5 150.245 86.183 152.589 83.8388C154.933 81.4946 156.25 78.3152 156.25 75Z" stroke="#296EFF" stroke-width="10" stroke-linecap="round" stroke-linejoin="round"/>
<path d="M175 112.5V125M168.75 118.75H181.25H168.75Z" stroke="#296EFF" stroke-width="10" stroke-linecap="round" stroke-linejoin="round"/>
</g>
<defs>
<clipPath id="clip0_151_969">
<rect width="150" height="150" fill="white" transform="translate(50 50)"/>
</clipPath>
</defs>
</svg>